<svg width="175" height="141" viewBox="0 0 175 141" fill="none" xmlns="http://www.w3.org/2000/svg">
<g clip-path="url(#clip0_4_17)">
<path d="M67.3923 62.4804L107.134 62.3004L106.966 25.2757L115.41 25.2375L86.9824 0.393947L58.7814 25.4939L67.2246 25.4557L67.3923 62.4804Z" fill="black"/>
<path d="M157.58 47.7052L119.129 47.8794L119.238 71.9526L55.3763 72.2418L55.2672 48.1686L16.8163 48.3428L87.429 99.0136L157.58 47.7052Z" fill="black"/>
<path d="M112.052 94.1074L166.982 133.524L166.623 54.1945L112.052 94.1074Z" fill="black"/>
<path d="M87.4882 112.074L71.8055 100.82L17.2348 140.733L157.998 140.095L103.068 100.678L87.4882 112.074Z" fill="black"/>
<path d="M7.83264 54.9137L8.19194 134.244L62.7623 94.3307L7.83264 54.9137Z" fill="black"/>
</g>
<defs>
<clipPath id="clip0_4_17">
<rect width="173.967" height="140.022" fill="white" transform="translate(0 0.787903) rotate(-0.259501)"/>
</clipPath>
</defs>
</svg>
