<svg width="167" height="122" viewBox="0 0 167 122" fill="none" xmlns="http://www.w3.org/2000/svg">
<path d="M144.496 0H22.5046C10.0764 0 0.000991821 7.36021 0.000991821 16.4397V105.56C0.000991821 114.639 10.076 121.999 22.5046 121.999H82.6701L82.7726 78.4034H67.2687C65.2538 78.4034 63.6185 77.2132 63.6107 75.7413L63.5364 61.6885C63.5286 60.2085 65.1689 59.0058 67.1947 59.0058H82.6705V45.4272C82.6705 29.6694 95.8442 21.0892 115.086 21.0892H130.876C132.896 21.0892 134.534 22.2856 134.534 23.7617V35.6111C134.534 37.0866 132.897 38.2828 130.878 38.2837L121.188 38.287C110.723 38.287 108.697 41.9196 108.697 47.2507V59.0061H131.691C133.882 59.0061 135.582 60.4037 135.324 61.9932L133.044 76.046C132.825 77.3908 131.264 78.404 129.411 78.404H108.8L108.697 122H144.497C156.925 122 167 114.64 167 105.561V16.4397C166.999 7.36021 156.924 0 144.496 0Z" fill="black"/>
</svg>
