<svg width="192" height="123" viewBox="0 0 192 123" fill="none" xmlns="http://www.w3.org/2000/svg">
<path d="M27.5312 35.5C27.5312 34.4375 27.3646 33.5 27.0312 32.6875C26.7188 31.8542 26.1562 31.1042 25.3438 30.4375C24.5521 29.7708 23.4479 29.1354 22.0312 28.5312C20.6354 27.9271 18.8646 27.3125 16.7188 26.6875C14.4688 26.0208 12.4375 25.2812 10.625 24.4688C8.8125 23.6354 7.26042 22.6875 5.96875 21.625C4.67708 20.5625 3.6875 19.3438 3 17.9688C2.3125 16.5938 1.96875 15.0208 1.96875 13.25C1.96875 11.4792 2.33333 9.84375 3.0625 8.34375C3.79167 6.84375 4.83333 5.54167 6.1875 4.4375C7.5625 3.3125 9.19792 2.4375 11.0938 1.8125C12.9896 1.1875 15.1042 0.875 17.4375 0.875C20.8542 0.875 23.75 1.53125 26.125 2.84375C28.5208 4.13542 30.3438 5.83333 31.5938 7.9375C32.8438 10.0208 33.4688 12.25 33.4688 14.625H27.4688C27.4688 12.9167 27.1042 11.4062 26.375 10.0938C25.6458 8.76042 24.5417 7.71875 23.0625 6.96875C21.5833 6.19792 19.7083 5.8125 17.4375 5.8125C15.2917 5.8125 13.5208 6.13542 12.125 6.78125C10.7292 7.42708 9.6875 8.30208 9 9.40625C8.33333 10.5104 8 11.7708 8 13.1875C8 14.1458 8.19792 15.0208 8.59375 15.8125C9.01042 16.5833 9.64583 17.3021 10.5 17.9688C11.375 18.6354 12.4792 19.25 13.8125 19.8125C15.1667 20.375 16.7812 20.9167 18.6562 21.4375C21.2396 22.1667 23.4688 22.9792 25.3438 23.875C27.2188 24.7708 28.7604 25.7812 29.9688 26.9062C31.1979 28.0104 32.1042 29.2708 32.6875 30.6875C33.2917 32.0833 33.5938 33.6667 33.5938 35.4375C33.5938 37.2917 33.2188 38.9688 32.4688 40.4688C31.7188 41.9688 30.6458 43.25 29.25 44.3125C27.8542 45.375 26.1771 46.1979 24.2188 46.7812C22.2812 47.3438 20.1146 47.625 17.7188 47.625C15.6146 47.625 13.5417 47.3333 11.5 46.75C9.47917 46.1667 7.63542 45.2917 5.96875 44.125C4.32292 42.9583 3 41.5208 2 39.8125C1.02083 38.0833 0.53125 36.0833 0.53125 33.8125H6.53125C6.53125 35.375 6.83333 36.7188 7.4375 37.8438C8.04167 38.9479 8.86458 39.8646 9.90625 40.5938C10.9688 41.3229 12.1667 41.8646 13.5 42.2188C14.8542 42.5521 16.2604 42.7188 17.7188 42.7188C19.8229 42.7188 21.6042 42.4271 23.0625 41.8438C24.5208 41.2604 25.625 40.4271 26.375 39.3438C27.1458 38.2604 27.5312 36.9792 27.5312 35.5Z" fill="black"/>
<path d="M71 21.0625V25.9688H46.375V21.0625H71ZM47.3125 1.5V47H41.2812V1.5H47.3125ZM76.25 1.5V47H70.25V1.5H76.25Z" fill="black"/>
<path d="M115.875 42.0938V47H91.7812V42.0938H115.875ZM93 1.5V47H86.9688V1.5H93ZM112.688 21.0625V25.9688H91.7812V21.0625H112.688ZM115.562 1.5V6.4375H91.7812V1.5H115.562Z" fill="black"/>
<path d="M123.344 1.5H138.406C141.823 1.5 144.708 2.02083 147.062 3.0625C149.438 4.10417 151.24 5.64583 152.469 7.6875C153.719 9.70833 154.344 12.1979 154.344 15.1562C154.344 17.2396 153.917 19.1458 153.062 20.875C152.229 22.5833 151.021 24.0417 149.438 25.25C147.875 26.4375 146 27.3229 143.812 27.9062L142.125 28.5625H127.969L127.906 23.6562H138.594C140.76 23.6562 142.562 23.2812 144 22.5312C145.438 21.7604 146.521 20.7292 147.25 19.4375C147.979 18.1458 148.344 16.7188 148.344 15.1562C148.344 13.4062 148 11.875 147.312 10.5625C146.625 9.25 145.542 8.23958 144.062 7.53125C142.604 6.80208 140.719 6.4375 138.406 6.4375H129.375V47H123.344V1.5ZM149.938 47L138.875 26.375L145.156 26.3438L156.375 46.625V47H149.938Z" fill="black"/>
<path d="M191.688 42.0938V47H167.594V42.0938H191.688ZM168.812 1.5V47H162.781V1.5H168.812ZM188.5 21.0625V25.9688H167.594V21.0625H188.5ZM191.375 1.5V6.4375H167.594V1.5H191.375Z" fill="black"/>
<path d="M27.5312 110.5C27.5312 109.438 27.3646 108.5 27.0312 107.688C26.7188 106.854 26.1562 106.104 25.3438 105.438C24.5521 104.771 23.4479 104.135 22.0312 103.531C20.6354 102.927 18.8646 102.312 16.7188 101.688C14.4688 101.021 12.4375 100.281 10.625 99.4688C8.8125 98.6354 7.26042 97.6875 5.96875 96.625C4.67708 95.5625 3.6875 94.3438 3 92.9688C2.3125 91.5938 1.96875 90.0208 1.96875 88.25C1.96875 86.4792 2.33333 84.8438 3.0625 83.3438C3.79167 81.8438 4.83333 80.5417 6.1875 79.4375C7.5625 78.3125 9.19792 77.4375 11.0938 76.8125C12.9896 76.1875 15.1042 75.875 17.4375 75.875C20.8542 75.875 23.75 76.5312 26.125 77.8438C28.5208 79.1354 30.3438 80.8333 31.5938 82.9375C32.8438 85.0208 33.4688 87.25 33.4688 89.625H27.4688C27.4688 87.9167 27.1042 86.4062 26.375 85.0938C25.6458 83.7604 24.5417 82.7188 23.0625 81.9688C21.5833 81.1979 19.7083 80.8125 17.4375 80.8125C15.2917 80.8125 13.5208 81.1354 12.125 81.7812C10.7292 82.4271 9.6875 83.3021 9 84.4062C8.33333 85.5104 8 86.7708 8 88.1875C8 89.1458 8.19792 90.0208 8.59375 90.8125C9.01042 91.5833 9.64583 92.3021 10.5 92.9688C11.375 93.6354 12.4792 94.25 13.8125 94.8125C15.1667 95.375 16.7812 95.9167 18.6562 96.4375C21.2396 97.1667 23.4688 97.9792 25.3438 98.875C27.2188 99.7708 28.7604 100.781 29.9688 101.906C31.1979 103.01 32.1042 104.271 32.6875 105.688C33.2917 107.083 33.5938 108.667 33.5938 110.438C33.5938 112.292 33.2188 113.969 32.4688 115.469C31.7188 116.969 30.6458 118.25 29.25 119.312C27.8542 120.375 26.1771 121.198 24.2188 121.781C22.2812 122.344 20.1146 122.625 17.7188 122.625C15.6146 122.625 13.5417 122.333 11.5 121.75C9.47917 121.167 7.63542 120.292 5.96875 119.125C4.32292 117.958 3 116.521 2 114.812C1.02083 113.083 0.53125 111.083 0.53125 108.812H6.53125C6.53125 110.375 6.83333 111.719 7.4375 112.844C8.04167 113.948 8.86458 114.865 9.90625 115.594C10.9688 116.323 12.1667 116.865 13.5 117.219C14.8542 117.552 16.2604 117.719 17.7188 117.719C19.8229 117.719 21.6042 117.427 23.0625 116.844C24.5208 116.26 25.625 115.427 26.375 114.344C27.1458 113.26 27.5312 111.979 27.5312 110.5Z" fill="black"/>
<path d="M71 96.0625V100.969H46.375V96.0625H71ZM47.3125 76.5V122H41.2812V76.5H47.3125ZM76.25 76.5V122H70.25V76.5H76.25Z" fill="black"/>
<path d="M122 97.8125V100.688C122 104.104 121.573 107.167 120.719 109.875C119.865 112.583 118.635 114.885 117.031 116.781C115.427 118.677 113.5 120.125 111.25 121.125C109.021 122.125 106.521 122.625 103.75 122.625C101.062 122.625 98.5938 122.125 96.3438 121.125C94.1146 120.125 92.1771 118.677 90.5312 116.781C88.9062 114.885 87.6458 112.583 86.75 109.875C85.8542 107.167 85.4062 104.104 85.4062 100.688V97.8125C85.4062 94.3958 85.8438 91.3438 86.7188 88.6562C87.6146 85.9479 88.875 83.6458 90.5 81.75C92.125 79.8333 94.0521 78.375 96.2812 77.375C98.5312 76.375 101 75.875 103.688 75.875C106.458 75.875 108.958 76.375 111.188 77.375C113.438 78.375 115.365 79.8333 116.969 81.75C118.594 83.6458 119.833 85.9479 120.688 88.6562C121.562 91.3438 122 94.3958 122 97.8125ZM116.031 100.688V97.75C116.031 95.0417 115.75 92.6458 115.188 90.5625C114.646 88.4792 113.844 86.7292 112.781 85.3125C111.719 83.8958 110.417 82.8229 108.875 82.0938C107.354 81.3646 105.625 81 103.688 81C101.812 81 100.115 81.3646 98.5938 82.0938C97.0938 82.8229 95.8021 83.8958 94.7188 85.3125C93.6562 86.7292 92.8333 88.4792 92.25 90.5625C91.6667 92.6458 91.375 95.0417 91.375 97.75V100.688C91.375 103.417 91.6667 105.833 92.25 107.938C92.8333 110.021 93.6667 111.781 94.75 113.219C95.8542 114.635 97.1562 115.708 98.6562 116.438C100.177 117.167 101.875 117.531 103.75 117.531C105.708 117.531 107.448 117.167 108.969 116.438C110.49 115.708 111.771 114.635 112.812 113.219C113.875 111.781 114.677 110.021 115.219 107.938C115.76 105.833 116.031 103.417 116.031 100.688Z" fill="black"/>
<path d="M147.812 104.156H135.656V99.25H147.812C150.167 99.25 152.073 98.875 153.531 98.125C154.99 97.375 156.052 96.3333 156.719 95C157.406 93.6667 157.75 92.1458 157.75 90.4375C157.75 88.875 157.406 87.4062 156.719 86.0312C156.052 84.6562 154.99 83.5521 153.531 82.7188C152.073 81.8646 150.167 81.4375 147.812 81.4375H137.062V122H131.031V76.5H147.812C151.25 76.5 154.156 77.0938 156.531 78.2812C158.906 79.4688 160.708 81.1146 161.938 83.2188C163.167 85.3021 163.781 87.6875 163.781 90.375C163.781 93.2917 163.167 95.7812 161.938 97.8438C160.708 99.9062 158.906 101.479 156.531 102.562C154.156 103.625 151.25 104.156 147.812 104.156Z" fill="black"/>
</svg>
