<svg width="148" height="122" viewBox="0 0 148 122" fill="none" xmlns="http://www.w3.org/2000/svg">
<g clip-path="url(#clip0_4_56)">
<path d="M143.637 23.9423C142.907 24.118 142.178 24.2816 141.448 24.4339C136.988 25.3623 136.578 24.1373 139.807 21.4347C141.253 20.2236 142.531 18.9064 143.641 17.4837C146.128 14.2935 143.971 12.9023 139.739 14.3925C138.23 14.9241 136.695 15.4061 135.139 15.8358C130.779 17.0428 124.592 15.2221 120.707 13.1908C115.802 10.6269 110.228 9.34561 103.983 9.34561C95.2344 9.34561 87.7778 11.8889 81.6086 16.9715C75.4412 22.0567 72.3559 28.2051 72.3559 35.4147C72.3559 36.4007 72.4242 37.4017 72.5593 38.4167C72.7809 40.0687 69.4056 41.2663 64.8509 40.736C54.9983 39.5894 45.6373 37.1284 36.766 33.3559C27.968 29.615 20.203 24.9074 13.4724 19.2329C10.2551 16.5209 5.90368 16.7545 4.70239 20.4155C3.98265 22.6101 3.62468 24.8924 3.62468 27.2629C3.62468 31.7301 4.8973 35.8734 7.44307 39.6926C8.70915 41.5932 10.1919 43.3139 11.8946 44.8534C14.7586 47.445 14.3204 48.9486 10.3337 48.0273C6.34876 47.1059 3.42841 45.738 3.42841 45.8273C3.42841 45.9166 3.42841 45.9893 3.42841 45.9893C3.42841 52.2832 5.82583 57.8134 10.6237 62.5746C13.5791 65.5079 17.0126 67.7738 20.9227 69.3697C25.046 71.0533 26.9667 71.9924 24.6611 72.2384C23.27 72.3867 21.8706 72.4607 20.4629 72.4607C19.5102 72.4607 18.5106 72.4251 17.4677 72.3524C15.8184 72.237 15.5219 75.07 18.0225 78.2535C20.01 80.7831 22.5538 83.0091 25.6527 84.932C28.8047 86.8889 32.2017 88.2936 35.8383 89.1492C40.2632 90.1889 41.1511 92.0827 37.2059 94.0327C27.4434 98.8615 16.6396 101.276 4.7963 101.276C3.4619 101.276 2.18901 101.251 0.973018 101.203C-1.13775 101.119 0.27832 102.652 4.35314 104.411C17.0861 109.908 30.8752 112.655 45.7225 112.655C56.9479 112.655 67.49 111.19 77.3476 108.257C87.2015 105.325 95.6231 101.396 102.607 96.473C109.591 91.5498 115.613 85.8877 120.673 79.4839C125.731 73.0803 129.499 66.3949 131.981 59.4283C134.46 52.4602 135.701 45.4784 135.701 38.4829C135.701 37.8525 135.695 37.2866 135.683 36.7882C135.66 35.8516 138.665 33.3164 142.02 30.7224C143.535 29.551 144.979 28.3218 146.359 27.0324C149.402 24.1853 148.054 22.8807 143.637 23.9423Z" fill="black"/>
</g>
<defs>
<clipPath id="clip0_4_56">
<rect width="148" height="122" fill="white"/>
</clipPath>
</defs>
</svg>
