<svg width="179" height="173" viewBox="0 0 179 173" fill="none" xmlns="http://www.w3.org/2000/svg">
<path d="M172.023 36.0761C165.562 28.6527 153.632 25.6246 130.85 25.6246H48.1487C24.8446 25.6246 12.713 28.848 6.27597 36.7513C0 44.4571 0 55.8109 0 71.5249V101.476C0 131.919 7.4464 147.375 48.1487 147.375H130.85C150.607 147.375 161.555 144.703 168.638 138.152C175.901 131.434 179 120.465 179 101.476V71.5249C179 54.9532 178.514 43.5324 172.023 36.0761ZM114.919 90.6353L77.3644 109.604C76.5248 110.029 75.6067 110.239 74.6898 110.239C73.6516 110.239 72.6157 109.969 71.6982 109.432C69.9705 108.42 68.9156 106.61 68.9156 104.658V66.8416C68.9156 64.8929 69.9676 63.0847 71.6918 62.0724C73.4166 61.0601 75.5617 60.9909 77.3511 61.8894L114.905 80.7363C116.816 81.6951 118.016 83.6014 118.019 85.6813C118.021 87.7629 116.826 89.672 114.919 90.6353Z" fill="black"/>
</svg>
